<?xml version="1.0" encoding="UTF-8"?>
<svg id="Layer_1" xmlns="http://www.w3.org/2000/svg" version="1.1" viewBox="0 0 240.391 226.415">
  <!-- Generator: Adobe Illustrator 30.0.0, SVG Export Plug-In . SVG Version: 2.1.1 Build 123)  -->
  <g opacity=".5">
    <path d="M36.95,162.845c-.29,0-.526.236-.526.526v1.052c0,.29.236.526.526.526s.526-.236.526-.526v-1.052c0-.291-.236-.526-.526-.526Z" fill="#fff"/>
    <path d="M222.636,114.632c.005-.238.019-.473.019-.712,0-20.754-15.813-37.81-36.048-39.787-7.582-17.669-26.594-28.406-46.303-24.782-5.366.987-10.297,2.96-14.663,5.682-6.967-14.047-21.447-23.707-38.189-23.707-23.486,0-42.531,19.002-42.609,42.47-19.025,5.824-32.62,21.235-32.62,39.335,0,4.334.78,8.515,2.226,12.446,1.379,16.453,15.159,29.377,31.969,29.377h145.197c17.724,0,32.091-14.367,32.091-32.091.001-2.845-.374-5.603-1.07-8.23Z" fill="#fff"/>
  </g>
</svg>