<?xml version="1.0" encoding="UTF-8"?>
<svg id="Layer_1" xmlns="http://www.w3.org/2000/svg" version="1.1" viewBox="0 0 240.391 226.414">
  <!-- Generator: Adobe Illustrator 30.0.0, SVG Export Plug-In . SVG Version: 2.1.1 Build 123)  -->
  <g>
    <g>
      <path d="M170.345,17.241c-13.957-2.102-32.022-3.371-51.774-3.371-18.231,0-35.019,1.08-48.472,2.899v25.417h-37.503v97.648h175.248V42.658h-37.499v-25.417h0Z" fill="#ea8e10"/>
      <path d="M170.345,49.958V17.345c19.178,3.328,31.597,8.568,31.597,14.484,3.255,0,5.902,2.722,5.902,6.083v12.046h-37.499Z" fill="#231f20"/>
      <path d="M70.097,49.436V16.822c-19.178,3.329-31.597,8.569-31.597,14.485-3.255,0-5.905,2.72-5.905,6.082v12.046h37.503Z" fill="#231f20"/>
    </g>
    <path d="M217.604,138.981c-4.43-4.428-13.397-4.731-20.074-8.5-26.793-15.146-45.361-19.952-76.711-19.952-.198,0-.399.002-.596.004-.197-.001-.403-.004-.597-.004-31.35,0-49.916,4.806-76.71,19.952-6.676,3.771-15.647,4.074-20.075,8.5-12.629,12.63-4.606,39.822-4.606,39.822,0,.729.582,1.309,1.301,1.309h201.367c.721,0,1.304-.58,1.304-1.309.001,0,8.027-27.192-4.605-39.822Z" fill="#f5a909"/>
    <path d="M144.451,14.645c0-3-9.753-9.779-24.365-9.779s-24.094,6.779-24.094,9.779" fill="#f5a909"/>
    <path d="M220.663,180.111H19.784c-.764,0-1.374.87-1.374,1.952l3.691,8.908c0,1.13.59,2.062,1.313,2.062h14.054v27.398c0,.895.655,1.624,1.462,1.624h41.15c.805,0,1.46-.728,1.46-1.624v-17.124h76.473v17.124c0,.895.649,1.624,1.472,1.624h41.776c.817,0,1.466-.728,1.466-1.624v-27.398h14.29c.733,0,1.327-.932,1.327-2.062l3.688-8.908c-.002-1.081-.623-1.952-1.37-1.952Z" fill="#231f20"/>
    <path d="M164.742,162.747c0,4.091-3.315,7.406-7.406,7.406h-74.229c-4.092,0-7.407-3.315-7.407-7.406v-27.848c0-4.097,3.315-7.412,7.407-7.412h74.229c4.091,0,7.406,3.316,7.406,7.412v27.848h0Z" fill="#12100b" stroke="#4d4947" stroke-width="6"/>
    <path d="M217.894,154.71c0,8.834-7.148,15.998-15.996,15.998s-15.988-7.161-15.988-15.998,7.17-15.995,15.988-15.995c8.848.001,15.996,7.162,15.996,15.995Z" fill="#d0d0d0" stroke="#231f20" stroke-width="4"/>
    <path d="M211.802,154.71c0,5.47-4.426,9.901-9.9,9.901s-9.897-4.434-9.897-9.901,4.438-9.899,9.897-9.899,9.9,4.433,9.9,9.899Z" fill="#fff" stroke="#231f20" stroke-width="2"/>
    <path d="M54.533,154.71c0,8.834-7.148,15.998-15.999,15.998s-15.988-7.161-15.988-15.998,7.171-15.995,15.988-15.995c8.849.001,15.999,7.162,15.999,15.995Z" fill="#d0d0d0" stroke="#231f20" stroke-width="4"/>
    <path d="M48.437,154.71c0,5.47-4.425,9.901-9.901,9.901s-9.895-4.434-9.895-9.901,4.436-9.899,9.895-9.899,9.901,4.433,9.901,9.899Z" fill="#fff" stroke="#231f20" stroke-width="2"/>
    <line x1="77.87" y1="144.974" x2="162.574" y2="144.974" fill="none" stroke="#4d4947" stroke-width="5"/>
    <line x1="77.87" y1="136.188" x2="162.574" y2="136.188" fill="none" stroke="#4d4947" stroke-width="5"/>
    <line x1="77.87" y1="153.762" x2="162.574" y2="153.762" fill="none" stroke="#4d4947" stroke-width="5"/>
    <line x1="77.87" y1="162.549" x2="162.574" y2="162.549" fill="none" stroke="#4d4947" stroke-width="5"/>
    <g>
      <path d="M115.29,96.009c0,.721-.582,1.31-1.305,1.31H39.842c-.721,0-1.307-.589-1.307-1.31v-36.096c0-.721.588-1.311,1.307-1.311h74.143c.723,0,1.305.589,1.305,1.311v36.096Z" fill="#fff"/>
      <path d="M201.9,96.009c0,.721-.583,1.31-1.302,1.31h-74.131c-.726,0-1.325-.589-1.325-1.31v-36.096c0-.721.595-1.311,1.325-1.311h74.131c.722,0,1.302.589,1.302,1.311v36.096Z" fill="#fff"/>
    </g>
    <path d="M188.78,97.412c0-9.465-10.227-16.337-19.384-16.337s-19.372,6.991-19.372,16.337" fill="none" stroke="#13110c" stroke-width="6"/>
    <g>
      <path d="M23.787,90.521c0,.715-.576,1.303-1.296,1.303H4.864c-.717,0-1.309-.589-1.309-1.303v-25.207c0-.722.592-1.304,1.309-1.304h17.627c.722,0,1.296.581,1.296,1.304v25.207Z" fill="#231f20"/>
      <path d="M13.673,91.824c0,6.043,8.382,10.922,18.753,10.922" fill="none" stroke="#13110c" stroke-width="6"/>
    </g>
    <g>
      <path d="M216.603,90.521c0,.715.593,1.303,1.301,1.303h17.627c.71,0,1.302-.589,1.302-1.303v-25.207c0-.722-.593-1.304-1.302-1.304h-17.627c-.709,0-1.301.581-1.301,1.304v25.207Z" fill="#231f20"/>
      <path d="M226.722,91.824c0,6.043-8.382,10.922-18.75,10.922" fill="none" stroke="#13110c" stroke-width="6"/>
    </g>
    <path d="M176.032,36.128c0,6.15,4.965,11.122,11.11,11.122s11.117-4.972,11.117-11.122-4.978-11.11-11.117-11.11-11.11,4.988-11.11,11.11Z" fill="#e30613" stroke="#dd1215" stroke-width=".234"/>
    <path d="M40.891,36.128c0,6.15,4.974,11.122,11.097,11.122s11.128-4.972,11.128-11.122-4.98-11.11-11.128-11.11-11.097,4.988-11.097,11.11Z" fill="#e30613" stroke="#dd1215" stroke-width=".234"/>
  </g>
  <g>
    <path d="M72.309,25.066c.999-.181,2.579-.317,4.183-.317,2.288,0,3.761.339,4.868,1.111.921.589,1.47,1.496,1.47,2.698,0,1.474-1.13,2.766-2.996,3.355v.045c1.681.362,3.653,1.564,3.653,3.831,0,1.315-.603,2.313-1.499,3.06-1.236.975-3.235,1.428-6.128,1.428-1.578,0-2.788-.09-3.553-.182l.002-15.03h0ZM74.598,31.323h2.076c2.423,0,3.841-1.088,3.841-2.561,0-1.791-1.578-2.494-3.893-2.494-1.052,0-1.657.068-2.025.137l.002,4.918h0ZM74.598,38.646c.448.068,1.105.091,1.92.091,2.367,0,4.55-.749,4.55-2.97,0-2.085-2.078-2.947-4.576-2.947h-1.894v5.827h0Z"/>
    <path d="M88.855,24.862v9.045c0,3.424,1.763,4.873,4.13,4.873,2.63,0,4.312-1.496,4.312-4.873v-9.045h2.314v8.91c0,4.693-2.865,6.619-6.706,6.619-3.63,0-6.365-1.791-6.365-6.529v-9h2.315Z"/>
    <path d="M103.27,37.739c1.027.544,2.525.998,4.103.998,2.341,0,3.709-1.066,3.709-2.607,0-1.428-.947-2.245-3.342-3.038-2.894-.884-4.681-2.177-4.681-4.33,0-2.382,2.29-4.149,5.734-4.149,1.814,0,3.129.362,3.919.749l-.632,1.61c-.58-.273-1.764-.726-3.367-.726-2.422,0-3.342,1.247-3.342,2.29,0,1.428,1.078,2.131,3.524,2.947,2.997.997,4.522,2.244,4.522,4.489,0,2.358-2.025,4.398-6.207,4.398-1.71,0-3.577-.431-4.522-.975l.583-1.656Z"/>
    <path d="M121.971,33.273v1.473h-6.495v-1.473h6.495Z"/>
    <path d="M124.76,25.066c.999-.181,2.578-.317,4.183-.317,2.287,0,3.761.339,4.866,1.111.92.589,1.472,1.496,1.472,2.698,0,1.474-1.13,2.766-2.997,3.355v.045c1.682.362,3.654,1.564,3.654,3.831,0,1.315-.604,2.313-1.499,3.06-1.237.975-3.236,1.428-6.129,1.428-1.579,0-2.788-.09-3.552-.182l.002-15.03h0ZM127.05,31.323h2.077c2.422,0,3.841-1.088,3.841-2.561,0-1.791-1.579-2.494-3.893-2.494-1.053,0-1.657.068-2.026.137l.002,4.918h0ZM127.05,38.646c.448.068,1.106.091,1.92.091,2.367,0,4.55-.749,4.55-2.97,0-2.085-2.077-2.947-4.575-2.947h-1.895v5.827h0Z"/>
    <path d="M151.406,39.643c-.842.362-2.525.725-4.681.725-4.999,0-8.76-2.721-8.76-7.731,0-4.783,3.761-8.025,9.257-8.025,2.21,0,3.605.408,4.209.68l-.552,1.609c-.867-.362-2.104-.634-3.577-.634-4.156,0-6.918,2.29-6.918,6.303,0,3.74,2.498,6.143,6.812,6.143,1.394,0,2.815-.249,3.734-.634l.474,1.564Z"/>
    <path d="M154.275,40.142v-15.28h2.499l5.681,7.731c1.315,1.791,2.34,3.402,3.182,4.965l.053-.022c-.211-2.04-.263-3.899-.263-6.279v-6.394h2.158v15.28h-2.314l-5.628-7.753c-1.238-1.701-2.422-3.447-3.313-5.101l-.079.022c.131,1.927.184,3.763.184,6.303v6.529h-2.16Z"/>
  </g>
</svg>